# xmcd
#
# Track frame offsets:
#	150
#	15185
#	31701
#	48314
#	65912
#	79436
#	98478
#	118155
#	131161
#	149100
#	166942
#	184968
#	203607
#	223293
#
# Disc length: 3215 seconds
#
# Revision: 0
# Processed by: cddbd v1.4PL0 Copyright (c) Steve Scherf et al.
# Submitted via: EasyCDDAExtractor 4.6.0.1
#
DISCID=ce0c8d0e
DTITLE=Wanessa Camargo - Wanessa Camargo Vol. 2
DYEAR=1900
DGENRE=Country
TTITLE0=Eu quero ser o seu amor
TTITLE1=Se aquela estrela é sua
TTITLE2=Tanta saudade
TTITLE3=Tudo bem
TTITLE4=Um grande amor
TTITLE5=Amor de verão
TTITLE6=Gostar de mim
TTITLE7=Enfeitiçada
TTITLE8=Eu estarei aqui
TTITLE9=De onde você vai surgir
TTITLE10=Um outro alguém
TTITLE11=Vou gritar seu nome
TTITLE12=Never goin' that way again
TTITLE13=You can let me down
EXTD=
EXTT0=
EXTT1=
EXTT2=
EXTT3=
EXTT4=
EXTT5=
EXTT6=
EXTT7=
EXTT8=
EXTT9=
EXTT10=
EXTT11=
EXTT12=
EXTT13=
PLAYORDER=
